<?xml version="1.0" encoding="UTF-8" standalone="no"?>
<svg
   xmlns:dc="http://purl.org/dc/elements/1.1/"
   xmlns:cc="http://creativecommons.org/ns#"
   xmlns:rdf="http://www.w3.org/1999/02/22-rdf-syntax-ns#"
   xmlns:svg="http://www.w3.org/2000/svg"
   xmlns="http://www.w3.org/2000/svg"
   viewBox="0 0 428.49332 110.44"
   height="110.44"
   width="428.49332"
   xml:space="preserve"
   id="svg2"
   version="1.1"><metadata
     id="metadata8"><rdf:RDF><cc:Work
         rdf:about=""><dc:format>image/svg+xml</dc:format><dc:type
           rdf:resource="http://purl.org/dc/dcmitype/StillImage" /></cc:Work></rdf:RDF></metadata><defs
     id="defs6" /><g
     transform="matrix(1.3333333,0,0,-1.3333333,0,110.44)"
     id="g10"><g
       transform="scale(0.1)"
       id="g12"><path
         id="path14"
         style="fill:#3bb83d;fill-opacity:1;fill-rule:nonzero;stroke:none"
         d="m 2989.49,26.4648 h 224.23 v 565.176 h -224.23 z" /><path
         id="path16"
         style="fill:#224ca2;fill-opacity:1;fill-rule:nonzero;stroke:none"
         d="m 2579.78,26.4648 h 373.688 v 565.035 H 2579.78 Z" /><path
         id="path18"
         style="fill:#f9ae0e;fill-opacity:1;fill-rule:nonzero;stroke:none"
         d="m 2998.9,519.055 -17.3,53.125 -17.33,-53.125 -55.92,-0.106 45.2,-32.82 -17.44,-53.352 45.48,32.989 45.4,-32.989 -17.36,53.34 45.23,32.832 -55.96,0.106" /><path
         id="path20"
         style="fill:#f9ae0e;fill-opacity:1;fill-rule:nonzero;stroke:none"
         d="m 3092.73,373.965 -17.29,53.105 -17.31,-53.105 -55.92,-0.137 45.19,-32.812 -17.42,-53.36 45.44,32.989 45.41,-32.989 -17.36,53.34 45.25,32.832 -55.99,0.137" /><path
         id="path22"
         style="fill:#f9ae0e;fill-opacity:1;fill-rule:nonzero;stroke:none"
         d="m 3052.1,206.895 -17.28,53.144 -17.32,-53.144 -55.94,-0.079 45.17,-32.832 -17.39,-53.379 45.42,32.997 45.44,-32.997 -17.36,53.36 45.22,32.851 -55.96,0.079" /><path
         id="path24"
         style="fill:#f9ae0e;fill-opacity:1;fill-rule:nonzero;stroke:none"
         d="m 2868.75,132.207 -17.3,53.113 -17.35,-53.113 -55.9,-0.117 45.18,-32.7931 -17.41,-53.3985 45.45,33.0079 45.39,-33.0079 -17.36,53.3594 45.26,32.8322 -55.96,0.117" /><path
         id="path26"
         style="fill:#f9ae0e;fill-opacity:1;fill-rule:nonzero;stroke:none"
         d="m 2710.41,199.27 -17.28,53.101 -17.35,-53.101 -55.92,-0.129 45.19,-32.813 -17.4,-53.359 45.44,32.988 45.41,-32.988 -17.37,53.34 45.23,32.832 -55.95,0.129" /><path
         id="path28"
         style="fill:#224ca2;fill-opacity:1;fill-rule:nonzero;stroke:none"
         d="m 2454.3,195.059 c -3.7,3.691 -7.61,5 -12.61,5 -6.19,0 -12.26,-2.715 -15.31,-7.598 v 6.941 h -5.53 v -52.324 h 5.53 v 32.238 c 0,8.477 4.98,15.872 14.01,15.872 4.36,0 6.74,-0.989 9.88,-4.153 l 4.03,4.024 m -54.5,-47.981 v 52.324 h -5.55 v -32.449 c 0,-9.883 -5.43,-15.637 -14.76,-15.637 -9.34,0 -14.44,5.532 -14.44,15.637 v 32.449 h -5.54 v -33.425 c 0,-6.192 1.95,-11.192 5.46,-14.551 3.35,-3.262 8.01,-4.981 13.87,-4.981 6.29,0 11.51,2.266 15.41,6.817 v -6.184 h 5.55 z m -28.35,73.508 h -6.28 v -8.367 h 6.28 v 8.367 z m 22.61,0 h -6.3 v -8.367 h 6.3 v 8.367 z m -47.88,-25.293 v 4.109 h -11.84 v 11.399 c 0,5.437 2.5,8.679 8.02,8.679 h 3.82 v 4.895 h -4.82 c -8.23,0 -12.57,-5.742 -12.57,-13.691 v -11.282 h -7.15 v -4.109 h 7.15 v -48.215 h 5.55 v 48.215 h 11.84 z m -63.3,-33.32 c 0,10.195 -6.62,12.902 -15.31,13.652 l -8.47,0.762 c -7.39,0.664 -10.63,3.379 -10.63,8.808 0,6.407 4.79,10.098 13.37,10.098 5.73,0 10.64,-1.523 14.64,-4.453 l 3.69,3.691 c -4.54,3.457 -11.19,5.528 -18.33,5.528 -11.43,0 -18.82,-5.86 -18.82,-14.864 0,-8.144 5.24,-12.832 15.77,-13.691 l 8.68,-0.742 c 6.84,-0.664 10,-3.367 10,-8.789 0,-7.071 -5.55,-10.657 -15.76,-10.657 -7.5,0 -13.02,2.075 -17.16,6.418 l -3.79,-3.808 c 5.33,-5.117 12.05,-7.481 21.17,-7.481 12.82,0 20.95,5.957 20.95,15.528 m -63.63,11.269 c 0,-10.847 -1.95,-21.926 -14.76,-21.926 -12.8,0 -14.74,11.079 -14.74,21.926 0,10.86 1.94,21.946 14.74,21.946 12.81,0 14.76,-11.086 14.76,-21.946 m 5.53,-26.164 v 77.297 h -5.53 v -31.707 c -4.54,6.082 -9.65,7.391 -15.52,7.391 -5.41,0 -10.08,-1.836 -12.8,-4.551 -5.33,-5.32 -6.72,-14.024 -6.72,-22.266 0,-8.262 1.39,-16.926 6.72,-22.246 2.72,-2.715 7.39,-4.551 12.8,-4.551 5.87,0 10.98,1.289 15.52,7.364 v -6.731 h 5.53 z m -57.94,0 v 33.43 c 0,6.211 -1.96,11.18 -5.44,14.551 -3.35,3.261 -8.02,5 -13.9,5 -6.28,0 -11.5,-2.286 -15.42,-6.836 v 6.179 h -5.52 v -52.324 h 5.52 v 32.453 c 0,9.903 5.43,15.657 14.77,15.657 9.37,0 14.45,-5.559 14.45,-15.657 v -32.453 h 5.54 z M 2103,173.242 c 0,-6.074 -0.33,-13.137 -4.67,-17.48 -2.83,-2.832 -6.64,-4.446 -10.85,-4.446 -4.24,0 -8.03,1.614 -10.85,4.446 -4.37,4.343 -4.68,11.406 -4.68,17.48 0,6.074 0.31,13.153 4.68,17.5 2.82,2.813 6.61,4.446 10.85,4.446 4.21,0 8.02,-1.633 10.85,-4.446 4.34,-4.347 4.67,-11.426 4.67,-17.5 m 5.54,0 c 0,7.5 -0.97,15.528 -6.51,21.055 -3.7,3.691 -8.7,5.762 -14.55,5.762 -5.85,0 -10.85,-2.071 -14.56,-5.762 -5.52,-5.527 -6.5,-13.555 -6.5,-21.055 0,-7.48 0.98,-15.508 6.5,-21.054 3.71,-3.692 8.71,-5.743 14.56,-5.743 5.85,0 10.85,2.051 14.55,5.743 5.54,5.546 6.51,13.574 6.51,21.054 m -48.96,45.918 v 5.215 h -46.88 v -77.297 h 5.85 v 35.07 h 34.96 v 5.196 h -34.96 v 31.816 h 41.03 z m -86.95,-24.101 c -3.68,3.691 -7.59,5 -12.59,5 -6.2,0 -12.27,-2.715 -15.29,-7.598 v 6.941 h -5.56 v -52.324 h 5.56 v 32.238 c 0,8.477 5,15.872 13.98,15.872 4.33,0 6.73,-0.989 9.88,-4.153 l 4.02,4.024 z m -56.87,-18.555 h -30.83 c 0.2,4.98 0.51,6.621 1.84,9.891 2.28,5.402 7.58,8.793 13.57,8.793 5.96,0 11.29,-3.391 13.56,-8.793 1.31,-3.27 1.62,-4.911 1.86,-9.891 m 5.54,-4.453 v 2.5 c 0,15.957 -7.92,25.508 -20.96,25.508 -13.13,0 -20.95,-9.981 -20.95,-26.817 0,-17.48 7.82,-26.797 22.25,-26.797 8.7,0 13.57,2.696 18.88,8.008 l -4.12,3.281 c -4.45,-4.472 -8.26,-6.308 -14.43,-6.308 -11.08,0 -17.04,7.383 -17.04,20.625 h 36.37 z m -59.29,-24.973 v 33.43 c 0,12.07 -7.38,19.551 -19.3,19.551 -6.31,0 -11.52,-2.286 -15.43,-6.836 v 31.152 h -5.53 v -77.297 h 5.53 v 32.453 c 0,9.903 5.43,15.657 14.75,15.657 9.35,0 14.45,-5.559 14.45,-15.657 v -32.453 h 5.53 z m -56.55,7.375 -3.8,3.477 c -4.44,-5 -7.91,-6.614 -13.46,-6.614 -5.86,0 -10.73,2.395 -13.9,6.954 -2.59,3.793 -3.58,7.921 -3.58,14.972 0,7.071 0.99,11.192 3.58,14.981 3.17,4.57 8.04,6.965 13.9,6.965 5.55,0 9.02,-1.633 13.46,-6.633 l 3.8,3.457 c -5.66,6.211 -10.11,8.047 -17.26,8.047 -14.22,0 -23,-10.196 -23,-26.817 0,-16.609 8.78,-26.797 23,-26.797 7.15,0 11.6,1.836 17.26,8.008 m -53.82,7.52 c 0,10.195 -6.64,12.902 -15.34,13.652 l -8.45,0.762 c -7.39,0.664 -10.64,3.379 -10.64,8.808 0,6.407 4.78,10.098 13.35,10.098 5.74,0 10.63,-1.523 14.65,-4.453 l 3.71,3.691 c -4.58,3.457 -11.19,5.528 -18.36,5.528 -11.39,0 -18.79,-5.86 -18.79,-14.864 0,-8.144 5.24,-12.832 15.74,-13.691 l 8.71,-0.742 c 6.83,-0.664 9.97,-3.367 9.97,-8.789 0,-7.071 -5.52,-10.657 -15.75,-10.657 -7.48,0 -13,2.075 -17.14,6.418 l -3.81,-3.808 c 5.33,-5.117 12.07,-7.481 21.19,-7.481 12.82,0 20.96,5.957 20.96,15.528 m -58.09,37.429 h -5.57 v -52.324 h 5.57 v 52.324 z m 0.64,24.973 h -6.81 v -6.836 h 6.81 v 6.836 z m -32.34,-59.062 c 0,-4.883 -0.97,-8.145 -2.95,-9.969 -3.67,-3.586 -8.23,-4.028 -13.01,-4.028 -9.44,0 -13.68,3.274 -13.68,10.207 0,6.954 4.35,10.528 13.35,10.528 h 16.29 v -6.738 z m 5.53,-18.235 v 35.832 c 0,10.969 -6.5,17.149 -20.3,17.149 -8.47,0 -14.02,-1.836 -18.45,-8.047 l 4.02,-3.457 c 3.24,4.765 7.06,6.633 14.43,6.633 10.65,0 14.77,-4.446 14.77,-12.813 v -5.871 h -16.92 c -11.42,0 -18.26,-5.527 -18.26,-15.098 0,-3.906 1.43,-7.695 3.79,-10.195 3.38,-3.477 7.72,-4.766 15.43,-4.766 7.37,0 11.51,1.387 15.96,5.852 v -5.219 h 5.53 z m -27.91,73.508 h -6.29 v -8.367 h 6.29 v 8.367 z m 22.58,0 h -6.29 v -8.367 h 6.29 v 8.367 z m -54.48,-47.344 c 0,-10.847 -1.95,-21.926 -14.76,-21.926 -12.82,0 -14.76,11.079 -14.76,21.926 0,10.86 1.94,21.946 14.76,21.946 12.81,0 14.76,-11.086 14.76,-21.946 m 5.53,0 c 0,8.242 -1.41,16.946 -6.71,22.266 -2.73,2.715 -7.4,4.551 -12.82,4.551 -5.86,0 -10.96,-1.309 -15.52,-7.391 v 6.734 h -5.54 v -77.293 h 5.54 v 31.7 c 4.56,-6.075 9.66,-7.364 15.52,-7.364 5.42,0 10.09,1.836 12.82,4.551 5.3,5.32 6.71,13.984 6.71,22.246 m -64.14,0 c 0,-6.074 -0.33,-13.137 -4.67,-17.48 -2.83,-2.832 -6.62,-4.446 -10.86,-4.446 -4.24,0 -8.02,1.614 -10.84,4.446 -4.35,4.343 -4.67,11.406 -4.67,17.48 0,6.074 0.32,13.153 4.67,17.5 2.82,2.813 6.6,4.446 10.84,4.446 4.24,0 8.03,-1.633 10.86,-4.446 4.34,-4.347 4.67,-11.426 4.67,-17.5 m 5.54,0 c 0,7.5 -1,15.528 -6.53,21.055 -3.68,3.691 -8.68,5.762 -14.54,5.762 -5.86,0 -10.84,-2.071 -14.54,-5.762 -5.55,-5.527 -6.53,-13.555 -6.53,-21.055 0,-7.48 0.98,-15.508 6.53,-21.054 3.7,-3.692 8.68,-5.743 14.54,-5.743 5.86,0 10.86,2.051 14.54,5.743 5.53,5.546 6.53,13.574 6.53,21.054 m -46.25,21.817 c -3.68,3.691 -7.59,5 -12.59,5 -6.19,0 -12.26,-2.715 -15.29,-7.598 v 6.941 h -5.55 v -52.324 h 5.55 v 32.238 c 0,8.477 4.98,15.872 14,15.872 4.35,0 6.73,-0.989 9.87,-4.153 l 4.01,4.024 z m -54.49,-47.981 v 52.324 h -5.53 v -32.449 c 0,-9.883 -5.43,-15.637 -14.77,-15.637 -9.33,0 -14.43,5.532 -14.43,15.637 v 32.449 h -5.54 v -33.425 c 0,-6.192 1.95,-11.192 5.43,-14.551 3.36,-3.262 8.03,-4.981 13.89,-4.981 6.31,0 11.52,2.266 15.42,6.817 v -6.184 h 5.53 z m -56.23,0 v 5.219 h -41.04 v 31.16 h 34.96 v 5.195 h -34.96 v 30.508 h 41.04 v 5.215 h -46.9 v -77.297 h 46.9 v 0" /><path
         id="path30"
         style="fill:#224ca2;fill-opacity:1;fill-rule:nonzero;stroke:none"
         d="m 2379.38,52.6172 c 0,-10.8594 -1.95,-21.9141 -14.78,-21.9141 -12.79,0 -14.76,11.0547 -14.76,21.9141 0,10.8594 1.97,21.9141 14.76,21.9141 12.83,0 14.78,-11.0547 14.78,-21.9141 m 5.55,-29.1016 v 55.2735 h -5.55 v -6.7383 c -4.56,6.0742 -9.66,7.3828 -15.52,7.3828 -5.44,0 -10.1,-1.8359 -12.82,-4.5703 -5.32,-5.293 -6.73,-13.9844 -6.73,-22.2461 0,-8.2422 1.41,-16.9336 6.73,-22.2266 2.72,-2.7539 7.38,-4.5703 12.82,-4.5703 5.86,0 10.96,1.2891 15.52,7.3633 v -9.3359 c 0,-10.3125 -4.87,-18.10551 -15.87,-18.10551 -6.62,0 -9.42,2.05078 -13.54,5.74221 l -3.72,-3.69143 c 5.56,-4.88281 9.47,-6.953126 17.26,-6.953126 13.57,0 21.42,9.550756 21.42,22.675756 m -58,2.9492 v 33.4375 c 0,6.1719 -1.95,11.1719 -5.41,14.5313 -3.35,3.2812 -8.02,5 -13.91,5 -6.29,0 -11.5,-2.2852 -15.4,-6.8359 v 6.1914 h -5.55 V 26.4648 h 5.55 v 32.461 c 0,9.8828 5.42,15.6055 14.76,15.6055 9.33,0 14.43,-5.5274 14.43,-15.6055 v -32.461 h 5.53 z m -61.33,0 v 52.3243 h -5.53 v -32.461 c 0,-9.8828 -5.43,-15.625 -14.77,-15.625 -9.33,0 -14.45,5.5274 -14.45,15.625 v 32.461 h -5.51 v -33.418 c 0,-6.2109 1.94,-11.2109 5.42,-14.5703 3.37,-3.2617 8.03,-4.9805 13.88,-4.9805 6.32,0 11.54,2.2852 15.43,6.8164 v -6.1719 h 5.53 z m -53.63,0 v 4.8633 h -3.79 c -6.19,0 -8.03,2.9492 -8.03,8.8086 V 103.77 h -5.55 V 40.0195 c 0,-8.125 4.13,-13.5547 12.61,-13.5547 h 4.76 z m -32.03,0 -21.06,32.7735 17.27,19.5508 h -7.05 L 2143.17,49.2578 V 103.77 h -5.56 V 26.4648 h 5.56 v 14.9805 l 11.92,13.7891 18.04,-28.7696 h 6.81 z m -58.6,7.3829 -3.8,3.457 c -4.45,-4.9805 -7.94,-6.6016 -13.45,-6.6016 -5.87,0 -10.77,2.4024 -13.89,6.9532 -2.65,3.789 -3.6,7.9101 -3.6,14.9609 0,7.0703 0.95,11.1914 3.6,15 3.12,4.5703 8.02,6.9141 13.89,6.9141 5.51,0 9,-1.6016 13.45,-6.6016 l 3.8,3.4766 c -5.64,6.1914 -10.11,8.0273 -17.25,8.0273 -14.25,0 -23.04,-10.1953 -23.04,-26.8164 0,-16.6211 8.79,-26.7969 23.04,-26.7969 7.14,0 11.61,1.8164 17.25,8.0274 m -58.29,44.9414 h -5.54 V 26.4648 h 5.54 v 52.3243 z m 0.64,24.9809 h -6.81 v -6.8559 h 6.81 v 6.8559 z m -18.23,-24.9809 h -6.08 l -13.34,-45.8203 -14.99,45.8203 h -5.45 l -14.96,-45.8203 -13.36,45.8203 h -6.06 l 16.7,-52.3243 h 5.63 l 14.78,43.6329 14.77,-43.6329 h 5.65 l 16.71,52.3243 z m -81.85,-52.3243 v 4.8633 h -3.79 c -5.57,0 -8.05,3.2813 -8.05,8.6914 V 74.668 h 11.84 v 4.1211 h -11.84 v 16.7187 h -5.54 V 78.7891 h -7.17 V 74.668 h 7.17 V 40.1367 c 0,-7.9297 4.36,-13.6719 12.59,-13.6719 h 4.79 z m -39.08,0 v 33.4375 c 0,6.1719 -1.96,11.1719 -5.43,14.5313 -3.36,3.2812 -8.03,5 -13.89,5 -6.31,0 -11.52,-2.2852 -15.43,-6.8359 v 6.1914 h -5.53 V 26.4648 h 5.53 v 32.461 c 0,9.8828 5.43,15.6055 14.77,15.6055 9.35,0 14.46,-5.5274 14.46,-15.6055 v -32.461 h 5.52 z m -56.88,0 v 5.1954 h -41.05 v 31.1523 h 34.96 v 5.2148 h -34.96 v 30.5079 h 41.05 v 5.2348 h -46.91 V 26.4648 h 46.91 z m -99.43,29.4141 h -30.84 c 0.23,5 0.54,6.6211 1.85,9.8828 2.28,5.4492 7.61,8.7696 13.57,8.7696 5.96,0 11.29,-3.3204 13.56,-8.7696 1.31,-3.2617 1.62,-4.8828 1.86,-9.8828 m 5.54,-4.4531 v 2.5 c 0,15.9765 -7.94,25.5078 -20.96,25.5078 -13.13,0 -20.95,-9.9805 -20.95,-26.8164 0,-17.4609 7.82,-26.7969 22.25,-26.7969 8.67,0 13.57,2.6953 18.88,8.0274 l -4.12,3.2617 c -4.44,-4.4727 -8.26,-6.3086 -14.43,-6.3086 -11.08,0 -17.05,7.3828 -17.05,20.625 h 36.38 z m -50.15,-24.961 v 4.8633 h -3.81 c -6.17,0 -8.03,2.9492 -8.03,8.8086 V 103.77 h -5.52 V 40.0195 c 0,-8.125 4.13,-13.5547 12.59,-13.5547 h 4.77 z m -43.31,18.2227 c 0,-4.8633 -0.99,-8.1445 -2.92,-9.9805 -3.7,-3.5742 -8.25,-4.0039 -13.03,-4.0039 -9.45,0 -13.68,3.2422 -13.68,10.1953 0,6.9532 4.33,10.5274 13.35,10.5274 h 16.28 v -6.7383 z m 5.53,-18.2227 v 35.8204 c 0,10.9765 -6.52,17.1484 -20.31,17.1484 -8.45,0 -13.97,-1.8359 -18.44,-8.0273 l 4.01,-3.4766 c 3.29,4.7851 7.08,6.6016 14.43,6.6016 10.66,0 14.78,-4.4336 14.78,-12.793 v -5.8594 h -16.95 c -11.38,0 -18.24,-5.5273 -18.24,-15.0976 0,-3.8868 1.44,-7.6758 3.84,-10.1954 3.35,-3.4765 7.69,-4.7656 15.4,-4.7656 7.38,0 11.5,1.3867 15.95,5.8399 v -5.1954 h 5.53 z m -56.66,0 v 33.4375 c 0,6.1719 -1.96,11.1719 -5.42,14.5313 -3.37,3.2812 -8.05,5 -13.9,5 -6.29,0 -11.5,-2.2852 -15.4,-6.8359 v 6.1914 h -5.56 V 26.4648 h 5.56 v 32.461 c 0,9.8828 5.41,15.6055 14.74,15.6055 9.35,0 14.46,-5.5274 14.46,-15.6055 v -32.461 h 5.52 z m -63.82,26.1524 c 0,-6.0742 -0.33,-13.125 -4.68,-17.4609 -2.81,-2.8321 -6.6,-4.4532 -10.84,-4.4532 -4.24,0 -8.04,1.6211 -10.86,4.4532 -4.35,4.3359 -4.67,11.3867 -4.67,17.4609 0,6.0937 0.32,13.1445 4.67,17.4805 2.82,2.832 6.62,4.4336 10.86,4.4336 4.24,0 8.03,-1.6016 10.84,-4.4336 4.35,-4.336 4.68,-11.3868 4.68,-17.4805 m 5.54,0 c 0,7.5195 -0.98,15.5273 -6.51,21.0742 -3.71,3.6914 -8.7,5.7422 -14.55,5.7422 -5.87,0 -10.86,-2.0508 -14.56,-5.7422 -5.53,-5.5469 -6.5,-13.5547 -6.5,-21.0742 0,-7.4805 0.97,-15.5078 6.5,-21.0547 3.7,-3.6914 8.69,-5.7422 14.56,-5.7422 5.85,0 10.84,2.0508 14.55,5.7422 5.53,5.5469 6.51,13.5742 6.51,21.0547 m -60.16,26.1719 h -5.53 V 26.4648 h 5.53 v 52.3243 z m 0.65,24.9809 h -6.83 v -6.8559 h 6.83 v 6.8559 z m -32.77,-51.1528 c 0,-10.8594 -1.95,-21.9141 -14.77,-21.9141 -12.8,0 -14.76,11.0547 -14.76,21.9141 0,10.8594 1.96,21.9141 14.76,21.9141 12.82,0 14.77,-11.0547 14.77,-21.9141 m 5.53,-29.1016 v 55.2735 h -5.53 v -6.7383 c -4.56,6.0742 -9.67,7.3828 -15.53,7.3828 -5.43,0 -10.09,-1.8359 -12.81,-4.5703 -5.32,-5.293 -6.73,-13.9844 -6.73,-22.2461 0,-8.2422 1.41,-16.9336 6.73,-22.2266 2.72,-2.7539 7.38,-4.5703 12.81,-4.5703 5.86,0 10.97,1.2891 15.53,7.3633 v -9.3359 c 0,-10.3125 -4.89,-18.10551 -15.86,-18.10551 -6.62,0 -9.42,2.05078 -13.56,5.74221 l -3.69,-3.69143 c 5.54,-4.88281 9.44,-6.953126 17.25,-6.953126 13.58,0 21.39,9.550756 21.39,22.675756 m -61.01,32.3633 h -30.83 c 0.23,5 0.54,6.6211 1.85,9.8828 2.28,5.4492 7.6,8.7696 13.57,8.7696 5.97,0 11.29,-3.3204 13.57,-8.7696 1.3,-3.2617 1.63,-4.8828 1.84,-9.8828 m 5.54,-4.4531 v 2.5 c 0,15.9765 -7.92,25.5078 -20.95,25.5078 -13.14,0 -20.95,-9.9805 -20.95,-26.8164 0,-17.4609 7.81,-26.7969 22.25,-26.7969 8.69,0 13.57,2.6953 18.89,8.0274 l -4.13,3.2617 c -4.44,-4.4727 -8.25,-6.3086 -14.44,-6.3086 -11.07,0 -17.04,7.3828 -17.04,20.625 h 36.37 z m -46,23.0078 c -3.7,3.6914 -7.61,5 -12.61,5 -6.19,0 -12.26,-2.7148 -15.31,-7.5781 v 6.9336 h -5.54 V 26.4648 h 5.54 v 32.2461 c 0,8.4571 5,15.8204 14.01,15.8204 4.34,0 6.73,-0.9571 9.88,-4.1016 l 4.03,4.0039 v 0" /><path
         id="path32"
         style="fill:#224ca2;fill-opacity:1;fill-rule:nonzero;stroke:none"
         d="m 2465.2,483.629 h -175.19 v 63.695 h 219.34 v 44.184 h -263.52 v -263.5 h 263.52 v 44.18 h -219.34 v 67.66 h 175.19 v 43.781 m -263.4,22.301 v 19.508 c 0,36.617 -29.48,66.07 -66.1,66.07 h -197.44 v -263.5 h 44.21 v 111.84 h 153.23 c 12.35,0 21.89,-9.539 21.89,-22.27 v -89.57 h 44.21 v 89.57 c 0,17.11 -6.39,32.227 -16.34,44.164 9.95,11.949 16.34,27.071 16.34,44.188 m -219.33,41.394 h 153.23 c 12.35,0 21.89,-9.554 21.89,-21.886 V 505.93 c 0,-12.731 -9.54,-22.301 -21.89,-22.301 h -153.23 v 63.695 z M 1690,328.008 v 111.84 h 175.13 v 43.781 H 1690 v 63.695 h 219.3 v 44.184 h -263.5 v -263.5 h 44.2 z m -121.38,155.621 h -175.13 v 63.695 h 219.32 v 44.184 h -263.52 v -263.5 h 263.52 v 44.18 h -219.32 v 67.66 h 175.13 v 43.781 0" /><path
         id="path34"
         style="fill:#224ca2;fill-opacity:1;fill-rule:nonzero;stroke:none"
         d="m 1344.49,699.672 v 127.535 h 77.39 v -8.59 h -67.72 v -50.34 h 57.69 v -8.597 h -57.69 v -51.399 h 67.72 v -8.609 h -77.39" /><path
         id="path36"
         style="fill:#224ca2;fill-opacity:1;fill-rule:nonzero;stroke:none"
         d="m 1505.55,699.672 v 10.207 c -6.45,-7.516 -15.06,-11.285 -25.45,-11.285 -9.68,0 -17.37,2.871 -22.93,8.246 -5.73,5.547 -8.96,13.789 -8.96,24.012 v 55.168 h 9.15 v -53.563 c 0,-16.66 8.4,-25.801 23.82,-25.801 15.41,0 24.37,9.496 24.37,25.801 v 53.563 h 9.13 v -86.348 h -9.13" /><path
         id="path38"
         style="fill:#224ca2;fill-opacity:1;fill-rule:nonzero;stroke:none"
         d="m 1597.97,772.23 c -5.2,5.192 -9.14,6.797 -16.3,6.797 -14.86,0 -23.11,-12.175 -23.11,-26.148 v -53.207 h -9.14 v 86.348 h 9.14 v -11.465 c 5.02,8.062 15.05,12.531 25.26,12.531 8.25,0 14.68,-2.141 20.78,-8.227 l -6.63,-6.629" /><path
         id="path40"
         style="fill:#224ca2;fill-opacity:1;fill-rule:nonzero;stroke:none"
         d="m 1670.13,708.09 c -6.08,-6.074 -14.33,-9.496 -24,-9.496 -9.67,0 -17.93,3.422 -24,9.496 -9.15,9.133 -10.75,22.394 -10.75,34.746 0,12.363 1.6,25.621 10.75,34.766 6.07,6.089 14.33,9.484 24,9.484 9.67,0 17.92,-3.395 24,-9.484 9.12,-9.145 10.75,-22.403 10.75,-34.766 0,-12.352 -1.63,-25.613 -10.75,-34.746 m -6.08,63.594 c -4.67,4.664 -10.95,7.343 -17.92,7.343 -6.99,0 -13.25,-2.679 -17.93,-7.343 -7.16,-7.161 -7.7,-18.805 -7.7,-28.848 0,-10.02 0.54,-21.668 7.7,-28.832 4.68,-4.652 10.94,-7.348 17.93,-7.348 6.97,0 13.25,2.696 17.92,7.348 7.14,7.164 7.68,18.812 7.68,28.832 0,10.043 -0.54,21.687 -7.68,28.848 v 0" /><path
         id="path42"
         style="fill:#224ca2;fill-opacity:1;fill-rule:nonzero;stroke:none"
         d="m 1766.48,706.125 c -4.45,-4.469 -12.17,-7.531 -21.1,-7.531 -9.68,0 -18.1,2.144 -25.63,12.191 v -52.316 h -9.15 V 786.02 h 9.15 v -11.106 c 7.53,10.031 15.95,12.172 25.63,12.172 8.93,0 16.65,-3.039 21.1,-7.52 8.79,-8.769 11.11,-23.105 11.11,-36.73 0,-13.606 -2.32,-27.938 -11.11,-36.711 m -22.35,72.902 c -21.17,0 -24.38,-18.265 -24.38,-36.191 0,-17.902 3.21,-36.18 24.38,-36.18 21.13,0 24.33,18.278 24.33,36.18 0,17.926 -3.2,36.191 -24.33,36.191 v 0" /><path
         id="path44"
         style="fill:#224ca2;fill-opacity:1;fill-rule:nonzero;stroke:none"
         d="m 1858.05,699.672 v 8.609 c -7.37,-7.347 -14.17,-9.687 -26.36,-9.687 -12.71,0 -19.88,2.144 -25.43,7.886 -3.94,4.118 -6.26,10.391 -6.26,16.836 0,15.766 11.29,24.903 30.09,24.903 h 27.96 v 9.676 c 0,13.789 -6.82,21.132 -24.37,21.132 -12.17,0 -18.47,-3.039 -23.82,-10.922 l -6.64,5.735 c 7.34,10.207 16.49,13.246 30.46,13.246 22.74,0 33.49,-10.211 33.49,-28.285 v -59.129 h -9.12 m 0,41.203 h -26.9 c -14.86,0 -22.01,-5.91 -22.01,-17.379 0,-11.465 6.97,-16.84 22.55,-16.84 7.89,0 15.41,0.719 21.51,6.641 3.22,3.035 4.85,8.418 4.85,16.457 v 11.121 0" /><path
         id="path46"
         style="fill:#224ca2;fill-opacity:1;fill-rule:nonzero;stroke:none"
         d="m 1958.72,779.211 v -79.539 h -9.15 v 79.539 h -11.81 v 6.809 h 11.81 v 18.628 c 0,13.071 7.16,22.559 20.78,22.559 h 7.87 v -8.051 h -6.27 c -9.11,0 -13.23,-5.383 -13.23,-14.336 v -18.8 h 19.5 v -6.809 h -19.5" /><path
         id="path48"
         style="fill:#224ca2;fill-opacity:1;fill-rule:nonzero;stroke:none"
         d="m 2055.07,708.09 c -6.09,-6.074 -14.33,-9.496 -24,-9.496 -9.69,0 -17.93,3.422 -24,9.496 -9.15,9.133 -10.75,22.394 -10.75,34.746 0,12.363 1.6,25.621 10.75,34.766 6.07,6.089 14.31,9.484 24,9.484 9.67,0 17.91,-3.395 24,-9.484 9.14,-9.145 10.76,-22.403 10.76,-34.766 0,-12.352 -1.62,-25.613 -10.76,-34.746 m -6.09,63.594 c -4.67,4.664 -10.92,7.343 -17.91,7.343 -6.98,0 -13.26,-2.679 -17.93,-7.343 -7.14,-7.161 -7.7,-18.805 -7.7,-28.848 0,-10.02 0.56,-21.668 7.7,-28.832 4.67,-4.652 10.95,-7.348 17.93,-7.348 6.99,0 13.24,2.696 17.91,7.348 7.17,7.164 7.71,18.812 7.71,28.832 0,10.043 -0.54,21.687 -7.71,28.848 z m -41.73,35.464 v 13.805 h 10.38 v -13.805 h -10.38 z m 37.24,0 v 13.805 h 10.41 v -13.805 h -10.41 v 0" /><path
         id="path50"
         style="fill:#224ca2;fill-opacity:1;fill-rule:nonzero;stroke:none"
         d="m 2144.1,772.23 c -5.18,5.192 -9.13,6.797 -16.29,6.797 -14.89,0 -23.1,-12.175 -23.1,-26.148 v -53.207 h -9.15 v 86.348 h 9.15 v -11.465 c 5,8.062 15.01,12.531 25.26,12.531 8.23,0 14.66,-2.141 20.75,-8.227 l -6.62,-6.629" /><path
         id="path52"
         style="fill:#224ca2;fill-opacity:1;fill-rule:nonzero;stroke:none"
         d="m 2215.38,699.672 v 11.113 c -7.53,-10.047 -15.95,-12.191 -25.63,-12.191 -8.97,0 -16.66,3.062 -21.14,7.531 -8.77,8.773 -11.1,23.105 -11.1,36.711 0,13.625 2.33,27.961 11.1,36.73 4.48,4.481 12.17,7.52 21.14,7.52 9.68,0 18.1,-2.141 25.63,-12.172 v 52.293 h 9.13 V 699.672 h -9.13 m -24.37,79.355 c -21.15,0 -24.35,-18.265 -24.35,-36.191 0,-17.902 3.2,-36.18 24.35,-36.18 21.13,0 24.37,18.278 24.37,36.18 0,17.926 -3.24,36.191 -24.37,36.191 v 0" /><path
         id="path54"
         style="fill:#224ca2;fill-opacity:1;fill-rule:nonzero;stroke:none"
         d="m 2263.38,740.875 c 0,-21.859 9.86,-34.035 28.13,-34.035 10.18,0 16.47,3.039 23.83,10.383 l 6.79,-5.371 c -8.78,-8.782 -16.83,-13.258 -31.17,-13.258 -23.82,0 -36.71,15.41 -36.71,44.242 0,27.769 12.89,44.25 34.55,44.25 21.51,0 34.58,-15.762 34.58,-42.086 v -4.125 h -60 m 47.84,23.648 c -3.78,8.954 -12.54,14.504 -22.42,14.504 -9.84,0 -18.6,-5.55 -22.38,-14.504 -2.15,-5.371 -2.69,-8.062 -3.04,-16.304 h 50.85 c -0.35,8.242 -0.88,10.933 -3.01,16.304 v 0" /><path
         id="path56"
         style="fill:#224ca2;fill-opacity:1;fill-rule:nonzero;stroke:none"
         d="m 2401.48,772.23 c -5.18,5.192 -9.12,6.797 -16.28,6.797 -14.86,0 -23.13,-12.175 -23.13,-26.148 v -53.207 h -9.13 v 86.348 h 9.13 v -11.465 c 5.01,8.062 15.03,12.531 25.27,12.531 8.26,0 14.69,-2.141 20.79,-8.227 l -6.65,-6.629" /><path
         id="path58"
         style="fill:#224ca2;fill-opacity:1;fill-rule:nonzero;stroke:none"
         d="m 2449.14,699.672 c -13.64,0 -20.79,9.5 -20.79,22.57 v 56.969 h -11.8 v 6.809 h 11.8 v 27.578 h 9.15 V 786.02 h 19.51 v -6.809 h -19.51 v -57.148 c 0,-8.95 4.13,-14.336 13.26,-14.336 h 6.25 v -8.055 h -7.87" /><path
         id="path60"
         style="fill:#224ca2;fill-opacity:1;fill-rule:nonzero;stroke:none"
         d="m 2564.34,698.594 c -18.99,0 -30.8,5.195 -42.49,16.844 l 6.83,6.804 c 11.45,-11.457 20.77,-15.047 36.18,-15.047 20.07,0 32.79,9.676 32.79,26.344 0,7.516 -2.34,13.789 -6.98,17.906 -4.67,3.946 -8.08,5.192 -18.46,6.805 l -14.89,2.336 c -9.65,1.43 -17.35,4.652 -22.74,9.309 -6.81,5.734 -10.01,13.617 -10.01,23.464 0,21.325 15.19,34.926 39.57,34.926 15.76,0 25.8,-4.297 36.71,-13.793 l -6.27,-6.265 c -7.87,6.992 -15.76,11.828 -30.97,11.828 -18.46,0 -29.56,-10.215 -29.56,-26.344 0,-7.34 2.17,-12.891 6.63,-16.656 4.47,-3.75 11.82,-6.805 18.99,-7.879 l 13.8,-2.153 c 11.99,-1.785 17.36,-3.925 22.75,-8.41 6.98,-5.734 11.1,-14.511 11.1,-24.722 0,-21.504 -16.49,-35.297 -42.98,-35.297" /><path
         id="path62"
         style="fill:#224ca2;fill-opacity:1;fill-rule:nonzero;stroke:none"
         d="m 2685.97,699.672 v 8.609 c -7.36,-7.347 -14.16,-9.687 -26.34,-9.687 -12.71,0 -19.88,2.144 -25.44,7.886 -3.93,4.118 -6.27,10.391 -6.27,16.836 0,15.766 11.29,24.903 30.1,24.903 h 27.95 v 9.676 c 0,13.789 -6.81,21.132 -24.37,21.132 -12.18,0 -18.46,-3.039 -23.83,-10.922 l -6.62,5.735 c 7.35,10.207 16.48,13.246 30.45,13.246 22.75,0 33.49,-10.211 33.49,-28.285 v -59.129 h -9.12 m 0,41.203 h -26.87 c -14.87,0 -22.05,-5.91 -22.05,-17.379 0,-11.465 7,-16.84 22.58,-16.84 7.87,0 15.41,0.719 21.5,6.641 3.22,3.035 4.84,8.418 4.84,16.457 v 11.121 0" /><path
         id="path64"
         style="fill:#224ca2;fill-opacity:1;fill-rule:nonzero;stroke:none"
         d="m 2762.08,698.594 c -23.45,0 -37.95,16.844 -37.95,44.242 0,27.414 14.5,44.25 37.95,44.25 11.84,0 19.18,-3.039 28.51,-13.246 l -6.29,-5.735 c -7.33,8.243 -13.07,10.922 -22.22,10.922 -9.65,0 -17.73,-3.933 -22.92,-11.461 -4.3,-6.265 -5.9,-13.082 -5.9,-24.73 0,-11.633 1.6,-18.441 5.9,-24.707 5.19,-7.531 13.27,-11.473 22.92,-11.473 9.15,0 14.89,2.696 22.22,10.934 l 6.29,-5.738 c -9.33,-10.196 -16.67,-13.258 -28.51,-13.258" /><path
         id="path66"
         style="fill:#224ca2;fill-opacity:1;fill-rule:nonzero;stroke:none"
         d="m 2874.76,699.672 v 53.57 c 0,16.653 -8.42,25.785 -23.8,25.785 -15.41,0 -24.37,-9.496 -24.37,-25.785 v -53.57 h -9.12 v 127.535 h 9.12 v -51.406 c 6.46,7.535 15.03,11.285 25.42,11.285 19.72,0 31.89,-12.363 31.89,-32.242 v -55.172 h -9.14" /><path
         id="path68"
         style="fill:#224ca2;fill-opacity:1;fill-rule:nonzero;stroke:none"
         d="m 2944.12,698.594 c -15.06,0 -26.18,3.941 -34.95,12.367 l 6.25,6.262 c 6.82,-7.157 15.96,-10.567 28.33,-10.567 16.84,0 25.96,5.91 25.96,17.567 0,8.953 -5.18,13.433 -16.47,14.5 l -14.34,1.257 c -17.35,1.43 -25.99,9.137 -25.99,22.563 0,14.879 12.2,24.543 31.01,24.543 11.84,0 22.75,-3.395 30.27,-9.125 l -6.09,-6.094 c -6.62,4.836 -14.68,7.344 -24.18,7.344 -14.16,0 -22.03,-6.102 -22.03,-16.668 0,-8.945 5.37,-13.426 17.56,-14.504 l 13.97,-1.258 c 14.34,-1.242 25.26,-5.726 25.26,-22.558 0,-15.77 -13.42,-25.629 -34.56,-25.629" /><path
         id="path70"
         style="fill:#224ca2;fill-opacity:1;fill-rule:nonzero;stroke:none"
         d="m 3010.2,740.875 c 0,-21.859 9.85,-34.035 28.13,-34.035 10.21,0 16.49,3.039 23.84,10.383 l 6.79,-5.371 c -8.79,-8.782 -16.86,-13.258 -31.16,-13.258 -23.84,0 -36.75,15.41 -36.75,44.242 0,27.769 12.91,44.25 34.59,44.25 21.49,0 34.57,-15.762 34.57,-42.086 v -4.125 h -60.01 m 47.85,23.648 c -3.78,8.954 -12.55,14.504 -22.41,14.504 -9.84,0 -18.63,-5.55 -22.4,-14.504 -2.13,-5.371 -2.68,-8.062 -3.04,-16.304 h 50.87 c -0.35,8.242 -0.9,10.933 -3.02,16.304 v 0" /><path
         id="path72"
         style="fill:#224ca2;fill-opacity:1;fill-rule:nonzero;stroke:none"
         d="m 3157.1,699.672 v 53.57 c 0,16.653 -8.41,25.785 -23.82,25.785 -15.39,0 -24.38,-9.496 -24.38,-25.785 v -53.57 h -9.12 v 86.348 h 9.12 v -10.219 c 6.47,7.535 15.05,11.285 25.45,11.285 9.67,0 17.38,-2.867 22.93,-8.227 5.72,-5.554 8.97,-13.8 8.97,-24.015 v -55.172 h -9.15" /><path
         id="path74"
         style="fill:#224ca2;fill-opacity:1;fill-rule:nonzero;stroke:none"
         d="m 3199.55,699.672 h 13.25 v 13.2617 h -13.25 z" /><path
         id="path76"
         style="fill:#224ca2;fill-opacity:1;fill-rule:nonzero;stroke:none"
         d="M 0.53125,828.293 H 972.211 V 171.699 H 0.53125 v 656.594 0" /><path
         id="path78"
         style="fill:#f9ae0e;fill-opacity:1;fill-rule:nonzero;stroke:none"
         d="m 465.664,685.23 20.508,15.161 20.504,-15.161 -7.805,24.52 20.82,15.172 h -25.668 l -7.851,24.82 -7.856,-24.847 -25.656,0.027 20.813,-15.172 -7.809,-24.52 v 0" /><path
         id="path80"
         style="fill:#f9ae0e;fill-opacity:1;fill-rule:nonzero;stroke:none"
         d="m 359.566,656.332 20.497,15.168 20.488,-15.168 -7.785,24.527 20.82,15.161 h -25.672 l -7.859,24.859 -7.864,-24.879 -25.648,0.02 20.812,-15.161 -7.789,-24.527 v 0" /><path
         id="path82"
         style="fill:#f9ae0e;fill-opacity:1;fill-rule:nonzero;stroke:none"
         d="m 302.434,642.012 -7.86,-24.879 -25.664,0.031 20.813,-15.172 -7.797,-24.531 20.508,15.172 20.5,-15.172 -7.801,24.531 20.808,15.172 h -25.66 l -7.847,24.848 v 0" /><path
         id="path84"
         style="fill:#f9ae0e;fill-opacity:1;fill-rule:nonzero;stroke:none"
         d="m 273.941,485.219 20.5,-15.164 -7.785,24.523 20.805,15.164 h -25.66 l -7.86,24.86 -7.847,-24.911 -25.668,0.051 20.82,-15.164 -7.805,-24.523 20.5,15.164 v 0" /><path
         id="path86"
         style="fill:#f9ae0e;fill-opacity:1;fill-rule:nonzero;stroke:none"
         d="m 310.281,402.012 -7.847,24.847 -7.86,-24.879 -25.664,0.032 20.813,-15.176 -7.797,-24.512 20.508,15.188 20.5,-15.188 -7.801,24.512 20.808,15.176 h -25.66 v 0" /><path
         id="path88"
         style="fill:#f9ae0e;fill-opacity:1;fill-rule:nonzero;stroke:none"
         d="m 388.07,323.164 -7.855,24.824 -7.844,-24.843 -25.668,0.019 20.813,-15.156 -7.793,-24.531 20.504,15.168 20.488,-15.168 -7.789,24.531 20.82,15.156 H 388.07 v 0" /><path
         id="path90"
         style="fill:#f9ae0e;fill-opacity:1;fill-rule:nonzero;stroke:none"
         d="m 494.043,294.602 -7.859,24.851 -7.84,-24.883 -25.672,0.032 20.808,-15.168 -7.789,-24.524 20.508,15.168 20.496,-15.168 -7.812,24.524 20.828,15.168 h -25.668 v 0" /><path
         id="path92"
         style="fill:#f9ae0e;fill-opacity:1;fill-rule:nonzero;stroke:none"
         d="m 600.016,323.164 -7.844,24.824 -7.871,-24.843 -25.649,0.019 20.801,-15.156 -7.789,-24.531 20.508,15.168 20.5,-15.168 -7.817,24.531 20.829,15.156 h -25.668 v 0" /><path
         id="path94"
         style="fill:#f9ae0e;fill-opacity:1;fill-rule:nonzero;stroke:none"
         d="m 677.82,402.012 -7.871,24.847 -7.863,-24.879 -25.645,0.032 20.821,-15.176 -7.809,-24.512 20.496,15.188 20.504,-15.188 -7.812,24.512 20.82,15.176 H 677.82 v 0" /><path
         id="path96"
         style="fill:#f9ae0e;fill-opacity:1;fill-rule:nonzero;stroke:none"
         d="M 731.656,510.039 H 705.98 l -7.871,24.856 -7.836,-24.875 -25.668,0.019 20.821,-15.156 -7.793,-24.531 20.476,15.191 20.504,-15.191 -7.789,24.531 20.832,15.156 v 0" /><path
         id="path98"
         style="fill:#f9ae0e;fill-opacity:1;fill-rule:nonzero;stroke:none"
         d="m 649.453,577.793 20.496,15.156 20.504,-15.156 -7.812,24.516 20.82,15.14 H 677.82 l -7.871,24.86 -7.863,-24.875 -25.645,0.015 20.821,-15.14 -7.809,-24.516 v 0" /><path
         id="path100"
         style="fill:#f9ae0e;fill-opacity:1;fill-rule:nonzero;stroke:none"
         d="m 592.461,720.852 -7.836,-24.879 -25.672,0.047 20.797,-15.192 -7.785,-24.515 20.531,15.187 20.469,-15.187 -7.793,24.515 L 626,696.02 h -25.695 l -7.844,24.832 v 0" /><path
         id="path102"
         style="fill:#224ca2;fill-opacity:1;fill-rule:nonzero;stroke:none"
         d="m 0,26.2891 v 85.1289 h 52.8359 v -8.137 H 9.08594 V 73.2695 H 46.3828 V 65.1563 H 9.08594 V 34.4336 H 52.8359 V 26.2891 H 0" /><path
         id="path104"
         style="fill:#224ca2;fill-opacity:1;fill-rule:nonzero;stroke:none"
         d="m 107.313,26.2891 v 6.582 c -4.184,-4.7852 -10.0435,-7.2969 -16.6138,-7.2969 -6.3398,0 -11.5976,1.9141 -15.1875,5.5117 -4.1797,4.0508 -5.9765,9.6758 -5.9765,16.4922 v 37.5274 h 8.6093 V 48.8867 c 0,-10.3906 5.5039,-15.664 14.3438,-15.664 8.8517,0 14.7027,5.3906 14.7027,15.664 v 36.2188 h 8.61 V 26.2891 h -8.488" /><path
         id="path106"
         style="fill:#224ca2;fill-opacity:1;fill-rule:nonzero;stroke:none"
         d="m 170.156,73.8672 c -3.222,3.2344 -5.617,4.3164 -10.156,4.3164 -8.609,0 -14.105,-6.8164 -14.105,-15.7813 V 26.2891 h -8.61 v 58.8164 h 8.61 v -7.168 c 3.222,4.8945 9.679,7.8906 16.5,7.8906 5.613,0 9.914,-1.3164 14.097,-5.4961 l -6.336,-6.4648" /><path
         id="path108"
         style="fill:#224ca2;fill-opacity:1;fill-rule:nonzero;stroke:none"
         d="m 215.18,73.8672 c -2.754,2.7539 -6.575,4.3164 -10.754,4.3164 -4.192,0 -7.895,-1.5625 -10.641,-4.3164 -4.308,-4.2969 -4.793,-11.5938 -4.793,-18.1641 0,-6.582 0.485,-13.8672 4.793,-18.164 2.746,-2.7539 6.449,-4.3164 10.641,-4.3164 4.179,0 8,1.5625 10.754,4.3164 4.308,4.2968 4.66,11.582 4.66,18.164 0,6.5703 -0.352,13.8672 -4.66,18.1641 z m 6.097,-41.5938 c -4.058,-4.0703 -9.679,-6.6992 -16.851,-6.6992 -7.18,0 -12.793,2.6289 -16.852,6.6992 -5.988,6.1055 -7.179,14.3477 -7.179,23.4297 0,9.0821 1.191,17.3438 7.179,23.4297 4.059,4.0703 9.672,6.6953 16.852,6.6953 7.172,0 12.793,-2.625 16.851,-6.6953 5.973,-6.0859 7.176,-14.3476 7.176,-23.4297 0,-9.082 -1.203,-17.3242 -7.176,-23.4297" /><path
         id="path110"
         style="fill:#224ca2;fill-opacity:1;fill-rule:nonzero;stroke:none"
         d="m 270.258,78.1836 c -12.785,0 -14.824,-10.9961 -14.824,-22.4805 0,-11.4765 2.039,-22.4804 14.824,-22.4804 12.789,0 14.707,11.0039 14.707,22.4804 0,11.4844 -1.918,22.4805 -14.707,22.4805 z m 16.133,-47.4609 c -3.106,-3.1172 -8.364,-5.1485 -14.34,-5.1485 -6.449,0 -11.824,1.5664 -16.617,7.6485 V 0 h -8.61 v 85.1055 h 8.61 v -6.9219 c 4.793,6.2109 10.168,7.6445 16.617,7.6445 5.976,0 11.234,-2.0273 14.34,-5.1367 5.988,-5.9844 7.179,-15.7812 7.179,-24.9883 0,-9.2109 -1.191,-19.0039 -7.179,-24.9804" /><path
         id="path112"
         style="fill:#224ca2;fill-opacity:1;fill-rule:nonzero;stroke:none"
         d="m 339.684,98.2617 v 10.6443 h 8.601 V 98.2617 Z m 5.621,-44.8242 h -16.496 c -8.852,0 -13.161,-3.5937 -13.161,-10.4102 0,-6.8046 4.196,-10.039 13.512,-10.039 5.024,0 9.445,0.3515 13.153,3.9453 2.039,1.9141 2.992,5.2617 2.992,10.1562 z m -30.969,44.8242 v 10.6443 h 8.613 V 98.2617 Z m 30.969,-71.9726 v 5.625 c -4.782,-4.7735 -9.09,-6.3399 -16.981,-6.3399 -8.129,0 -12.914,1.5664 -16.609,5.3828 -2.875,2.8711 -4.43,7.2969 -4.43,11.9532 0,10.2812 7.172,16.9726 20.32,16.9726 h 17.7 v 5.625 c 0,8.6016 -4.309,12.9102 -15.067,12.9102 -7.527,0 -11.355,-1.7969 -14.828,-6.6992 l -5.859,5.3828 c 5.269,6.8164 11.234,8.7265 20.808,8.7265 15.786,0 23.547,-6.8125 23.547,-19.6054 V 26.2891 h -8.601" /><path
         id="path114"
         style="fill:#224ca2;fill-opacity:1;fill-rule:nonzero;stroke:none"
         d="m 374.789,26.2891 v 58.8164 h 8.613 V 26.2891 Z m -0.476,75.5589 v 9.675 h 9.679 v -9.675 h -9.679" /><path
         id="path116"
         style="fill:#224ca2;fill-opacity:1;fill-rule:nonzero;stroke:none"
         d="m 423.547,25.5742 c -9.914,0 -17.688,2.2774 -24.137,8.4883 l 5.731,5.7422 c 4.664,-4.9024 10.996,-6.8164 18.293,-6.8164 9.679,0 15.652,3.4765 15.652,10.4023 0,5.1446 -2.981,8.0157 -9.793,8.6133 l -9.684,0.8281 c -11.472,0.9571 -17.574,6.0938 -17.574,15.7813 0,10.7617 9.082,17.2148 21.637,17.2148 8.375,0 15.898,-2.0273 21.164,-6.3359 l -5.621,-5.625 c -4.192,3.2344 -9.57,4.668 -15.668,4.668 -8.606,0 -13.141,-3.6993 -13.141,-9.6797 0,-5.0274 2.864,-8.0157 10.274,-8.6133 l 9.449,-0.8281 c 10.281,-0.9571 17.332,-4.9024 17.332,-15.8985 0,-11.3672 -9.688,-17.9414 -23.914,-17.9414" /><path
         id="path118"
         style="fill:#224ca2;fill-opacity:1;fill-rule:nonzero;stroke:none"
         d="m 487.117,25.5742 c -14.828,0 -26.062,10.0508 -26.062,30.1289 0,20.0782 11.234,30.125 26.062,30.125 8.137,0 13.274,-2.1562 19.371,-8.7265 l -5.859,-5.5 c -4.434,4.9023 -7.891,6.582 -13.512,6.582 -5.738,0 -10.519,-2.2773 -13.633,-6.6992 -2.746,-3.8281 -3.828,-8.3711 -3.828,-15.7813 0,-7.4218 1.082,-11.9531 3.828,-15.7812 3.114,-4.4219 7.895,-6.6992 13.633,-6.6992 5.621,0 9.078,1.7968 13.512,6.6992 l 5.859,-5.6133 c -6.097,-6.5742 -11.234,-8.7344 -19.371,-8.7344" /><path
         id="path120"
         style="fill:#224ca2;fill-opacity:1;fill-rule:nonzero;stroke:none"
         d="m 560.492,26.2891 v 36.3476 c 0,10.2852 -5.492,15.5469 -14.34,15.5469 -8.851,0 -14.711,-5.3789 -14.711,-15.5469 V 26.2891 h -8.609 v 85.1289 h 8.609 V 78.6523 c 4.305,4.9024 9.926,7.1758 16.504,7.1758 13.266,0 21.157,-8.4843 21.157,-21.7656 V 26.2891 h -8.61" /><path
         id="path122"
         style="fill:#224ca2;fill-opacity:1;fill-rule:nonzero;stroke:none"
         d="m 624.656,69.6875 c -2.269,5.3711 -7.539,8.8477 -13.742,8.8477 -6.211,0 -11.48,-3.4766 -13.75,-8.8477 -1.312,-3.2227 -1.555,-5.0195 -1.793,-9.8047 h 31.078 c -0.238,4.7852 -0.476,6.582 -1.793,9.8047 z m -29.285,-16.25 c 0,-12.9102 6.094,-20.332 17.332,-20.332 6.817,0 10.754,2.0312 15.41,6.6992 l 5.864,-5.1367 c -5.973,-5.9766 -11.477,-9.0938 -21.516,-9.0938 -15.535,0 -25.703,9.3281 -25.703,30.1289 0,19.0039 9.203,30.125 24.156,30.125 15.172,0 24.149,-10.9922 24.149,-28.4453 v -3.9453 h -39.692" /><path
         id="path124"
         style="fill:#224ca2;fill-opacity:1;fill-rule:nonzero;stroke:none"
         d="m 713.074,25.5742 c -17.219,0 -29.656,11.836 -29.656,28.8125 v 57.0313 h 9.094 V 55.1055 c 0,-12.9102 8.129,-21.3946 20.562,-21.3946 12.422,0 20.68,8.4844 20.68,21.3946 v 56.3125 h 9.078 V 54.3867 c 0,-16.9765 -12.551,-28.8125 -29.758,-28.8125" /><path
         id="path126"
         style="fill:#224ca2;fill-opacity:1;fill-rule:nonzero;stroke:none"
         d="m 802.324,26.2891 v 36.2304 c 0,10.4024 -5.613,15.6641 -14.469,15.6641 -8.835,0 -14.578,-5.3789 -14.578,-15.6641 V 26.2891 h -8.613 v 58.8164 h 8.613 v -6.4532 c 4.188,4.7852 9.922,7.1758 16.496,7.1758 6.34,0 11.477,-1.9101 15.067,-5.4961 4.176,-4.0625 6.098,-9.5703 6.098,-16.3867 V 26.2891 h -8.614" /><path
         id="path128"
         style="fill:#224ca2;fill-opacity:1;fill-rule:nonzero;stroke:none"
         d="m 831.82,26.2891 v 58.8164 h 8.614 V 26.2891 Z m -0.476,75.5589 v 9.675 h 9.679 v -9.675 h -9.679" /><path
         id="path130"
         style="fill:#224ca2;fill-opacity:1;fill-rule:nonzero;stroke:none"
         d="m 893.734,73.8672 c -2.754,2.7539 -6.578,4.3164 -10.769,4.3164 -4.18,0 -7.875,-1.5625 -10.629,-4.3164 -4.309,-4.2969 -4.785,-11.5938 -4.785,-18.1641 0,-6.582 0.476,-13.8672 4.785,-18.164 2.754,-2.7539 6.449,-4.3164 10.629,-4.3164 4.191,0 8.015,1.5625 10.769,4.3164 4.309,4.2968 4.661,11.582 4.661,18.164 0,6.5703 -0.352,13.8672 -4.661,18.1641 z m 6.102,-41.5938 c -4.07,-4.0703 -9.691,-6.6992 -16.871,-6.6992 -7.172,0 -12.789,2.6289 -16.856,6.6992 -5.972,6.1055 -7.171,14.3477 -7.171,23.4297 0,9.0821 1.199,17.3438 7.171,23.4297 4.067,4.0703 9.684,6.6953 16.856,6.6953 7.18,0 12.801,-2.625 16.871,-6.6953 5.965,-6.0859 7.168,-14.3476 7.168,-23.4297 0,-9.082 -1.203,-17.3242 -7.168,-23.4297" /><path
         id="path132"
         style="fill:#224ca2;fill-opacity:1;fill-rule:nonzero;stroke:none"
         d="m 963.043,26.2891 v 36.2304 c 0,10.4024 -5.621,15.6641 -14.473,15.6641 -8.851,0 -14.582,-5.3789 -14.582,-15.6641 V 26.2891 h -8.613 v 58.8164 h 8.613 v -6.4532 c 4.176,4.7852 9.922,7.1758 16.485,7.1758 6.34,0 11.48,-1.9101 15.062,-5.4961 4.195,-4.0625 6.102,-9.5703 6.102,-16.3867 V 26.2891 h -8.594" /></g></g></svg>